# xmcd
#
# Track frame offsets:
#	151
#	14758
#	28415
#	43254
#	54758
#	68834
#	82674
#	96484
#	114860
#	128277
#	140940
#	154348
#
# Disc length: 2287 seconds
#
# Revision: 1
# Processed by: cddbd v1.5.2PL0 Copyright (c) Steve Scherf et al.
# Submitted via: audiograbber 1.83.01
#
DISCID=a008ed0c
DTITLE=Terry Moratti - My Time
DYEAR=1900
DGENRE=Country
TTITLE0=Frauline
TTITLE1=Heartaches By The Number
TTITLE2=Daylight
TTITLE3=A Room Full Of Roses
TTITLE4=A Country Boy Like Me
TTITLE5=Your Cheating Heart
TTITLE6=Thanks For The Love
TTITLE7=He Took Your Place
TTITLE8=Kiss An Angel Good Morning
TTITLE9=One And One and One
TTITLE10=She's No Angel
TTITLE11=Fill My Cup Lord
EXTD=New Plymouth, New Zealand
EXTT0=
EXTT1=
EXTT2=
EXTT3=
EXTT4=
EXTT5=
EXTT6=
EXTT7=
EXTT8=
EXTT9=
EXTT10=
EXTT11=
PLAYORDER=
